<mxfile host="app.diagrams.net" modified="2022-08-22T08:21:37.774Z" agent="5.0 (Windows NT 10.0; Win64; x64) AppleWebKit/537.36 (KHTML, like Gecko) Chrome/103.0.0.0 Safari/537.36" etag="appa1dWa3uaz4z7wjWEx" version="20.2.5" type="github">
  <diagram id="PxeQEXHzFKQ4PrNTcv5A" name="第 1 页">
    <mxGraphModel dx="2062" dy="1132" grid="1" gridSize="10" guides="1" tooltips="1" connect="1" arrows="1" fold="1" page="1" pageScale="1" pageWidth="827" pageHeight="1169" math="0" shadow="0">
      <root>
        <mxCell id="0" />
        <mxCell id="1" parent="0" />
        <mxCell id="am_DWn_WP4FMPw5h6pt2-2" value="PEA" style="text;html=1;strokeColor=none;fillColor=none;align=left;verticalAlign=middle;whiteSpace=wrap;rounded=0;" vertex="1" parent="1">
          <mxGeometry x="160" y="116" width="60" height="30" as="geometry" />
        </mxCell>
        <mxCell id="am_DWn_WP4FMPw5h6pt2-3" value="VPU(using_single_port is True or None)" style="text;html=1;strokeColor=none;fillColor=none;align=left;verticalAlign=middle;whiteSpace=wrap;rounded=0;" vertex="1" parent="1">
          <mxGeometry x="160" y="201" width="230" height="30" as="geometry" />
        </mxCell>
        <mxCell id="am_DWn_WP4FMPw5h6pt2-4" value="Other" style="text;whiteSpace=wrap;html=1;align=left;" vertex="1" parent="1">
          <mxGeometry x="160" y="274" width="60" height="40" as="geometry" />
        </mxCell>
        <mxCell id="am_DWn_WP4FMPw5h6pt2-5" value="VPU(using_single_port is False)" style="text;whiteSpace=wrap;html=1;align=left;" vertex="1" parent="1">
          <mxGeometry x="160" y="353" width="200" height="40" as="geometry" />
        </mxCell>
        <mxCell id="am_DWn_WP4FMPw5h6pt2-6" value="Read region" style="ellipse;whiteSpace=wrap;html=1;" vertex="1" parent="1">
          <mxGeometry x="470" y="116" width="90" height="40" as="geometry" />
        </mxCell>
        <mxCell id="am_DWn_WP4FMPw5h6pt2-7" value="Write region" style="ellipse;whiteSpace=wrap;html=1;" vertex="1" parent="1">
          <mxGeometry x="620" y="116" width="90" height="40" as="geometry" />
        </mxCell>
        <mxCell id="am_DWn_WP4FMPw5h6pt2-8" value="Add term" style="ellipse;whiteSpace=wrap;html=1;" vertex="1" parent="1">
          <mxGeometry x="750" y="121" width="80" height="30" as="geometry" />
        </mxCell>
        <mxCell id="am_DWn_WP4FMPw5h6pt2-20" value="" style="endArrow=none;html=1;rounded=0;entryX=0.5;entryY=1;entryDx=0;entryDy=0;strokeWidth=5;" edge="1" parent="1" source="am_DWn_WP4FMPw5h6pt2-9" target="am_DWn_WP4FMPw5h6pt2-8">
          <mxGeometry width="50" height="50" relative="1" as="geometry">
            <mxPoint x="770" y="240" as="sourcePoint" />
            <mxPoint x="820" y="190" as="targetPoint" />
          </mxGeometry>
        </mxCell>
        <mxCell id="am_DWn_WP4FMPw5h6pt2-21" value="" style="endArrow=none;html=1;rounded=0;entryX=0.5;entryY=1;entryDx=0;entryDy=0;exitX=1;exitY=0.5;exitDx=0;exitDy=0;strokeWidth=5;" edge="1" parent="1" source="am_DWn_WP4FMPw5h6pt2-10" target="am_DWn_WP4FMPw5h6pt2-8">
          <mxGeometry width="50" height="50" relative="1" as="geometry">
            <mxPoint x="567.001536304675" y="254.82155561338277" as="sourcePoint" />
            <mxPoint x="800" y="215" as="targetPoint" />
          </mxGeometry>
        </mxCell>
        <mxCell id="am_DWn_WP4FMPw5h6pt2-22" value="" style="endArrow=none;html=1;rounded=0;entryX=0.5;entryY=1;entryDx=0;entryDy=0;exitX=1;exitY=0;exitDx=0;exitDy=0;strokeWidth=5;" edge="1" parent="1" source="am_DWn_WP4FMPw5h6pt2-11" target="am_DWn_WP4FMPw5h6pt2-8">
          <mxGeometry width="50" height="50" relative="1" as="geometry">
            <mxPoint x="567.001536304675" y="254.82155561338277" as="sourcePoint" />
            <mxPoint x="800" y="215" as="targetPoint" />
          </mxGeometry>
        </mxCell>
        <mxCell id="am_DWn_WP4FMPw5h6pt2-23" value="" style="endArrow=none;html=1;rounded=0;entryX=0.5;entryY=1;entryDx=0;entryDy=0;strokeWidth=5;" edge="1" parent="1" source="am_DWn_WP4FMPw5h6pt2-12" target="am_DWn_WP4FMPw5h6pt2-8">
          <mxGeometry width="50" height="50" relative="1" as="geometry">
            <mxPoint x="577.001536304675" y="264.82155561338277" as="sourcePoint" />
            <mxPoint x="810" y="225" as="targetPoint" />
          </mxGeometry>
        </mxCell>
        <mxCell id="am_DWn_WP4FMPw5h6pt2-24" value="" style="endArrow=none;html=1;rounded=0;entryX=0.5;entryY=1;entryDx=0;entryDy=0;exitX=1;exitY=0;exitDx=0;exitDy=0;strokeWidth=5;" edge="1" parent="1" source="am_DWn_WP4FMPw5h6pt2-13" target="am_DWn_WP4FMPw5h6pt2-8">
          <mxGeometry width="50" height="50" relative="1" as="geometry">
            <mxPoint x="694.5746554646053" y="311.99131697256325" as="sourcePoint" />
            <mxPoint x="800" y="215" as="targetPoint" />
          </mxGeometry>
        </mxCell>
        <mxCell id="am_DWn_WP4FMPw5h6pt2-25" value="" style="endArrow=none;html=1;rounded=0;entryX=0.5;entryY=1;entryDx=0;entryDy=0;exitX=0.5;exitY=0;exitDx=0;exitDy=0;strokeWidth=5;" edge="1" parent="1" source="am_DWn_WP4FMPw5h6pt2-14" target="am_DWn_WP4FMPw5h6pt2-8">
          <mxGeometry width="50" height="50" relative="1" as="geometry">
            <mxPoint x="704.5746554646053" y="321.99131697256325" as="sourcePoint" />
            <mxPoint x="810" y="220" as="targetPoint" />
          </mxGeometry>
        </mxCell>
        <mxCell id="am_DWn_WP4FMPw5h6pt2-9" value="Read region" style="ellipse;whiteSpace=wrap;html=1;" vertex="1" parent="1">
          <mxGeometry x="470" y="196" width="90" height="40" as="geometry" />
        </mxCell>
        <mxCell id="am_DWn_WP4FMPw5h6pt2-11" value="Read region" style="ellipse;whiteSpace=wrap;html=1;" vertex="1" parent="1">
          <mxGeometry x="470" y="274" width="90" height="40" as="geometry" />
        </mxCell>
        <mxCell id="am_DWn_WP4FMPw5h6pt2-12" value="Write region" style="ellipse;whiteSpace=wrap;html=1;" vertex="1" parent="1">
          <mxGeometry x="620" y="274" width="90" height="40" as="geometry" />
        </mxCell>
        <mxCell id="am_DWn_WP4FMPw5h6pt2-13" value="Read region" style="ellipse;whiteSpace=wrap;html=1;" vertex="1" parent="1">
          <mxGeometry x="470" y="353" width="90" height="40" as="geometry" />
        </mxCell>
        <mxCell id="am_DWn_WP4FMPw5h6pt2-14" value="Write region" style="ellipse;whiteSpace=wrap;html=1;" vertex="1" parent="1">
          <mxGeometry x="620" y="353" width="90" height="40" as="geometry" />
        </mxCell>
        <mxCell id="am_DWn_WP4FMPw5h6pt2-26" value="" style="endArrow=none;html=1;rounded=0;entryX=0.5;entryY=1;entryDx=0;entryDy=0;exitX=0.5;exitY=0;exitDx=0;exitDy=0;fillColor=#dae8fc;strokeColor=#6c8ebf;strokeWidth=5;" edge="1" parent="1" source="am_DWn_WP4FMPw5h6pt2-12" target="am_DWn_WP4FMPw5h6pt2-10">
          <mxGeometry width="50" height="50" relative="1" as="geometry">
            <mxPoint x="650" y="280" as="sourcePoint" />
            <mxPoint x="700" y="230" as="targetPoint" />
          </mxGeometry>
        </mxCell>
        <mxCell id="am_DWn_WP4FMPw5h6pt2-27" value="" style="endArrow=none;html=1;rounded=0;strokeWidth=5;exitX=0;exitY=0.5;exitDx=0;exitDy=0;fillColor=#f8cecc;strokeColor=#b85450;" edge="1" parent="1" source="am_DWn_WP4FMPw5h6pt2-12">
          <mxGeometry width="50" height="50" relative="1" as="geometry">
            <mxPoint x="490" y="200" as="sourcePoint" />
            <mxPoint x="540" y="150" as="targetPoint" />
          </mxGeometry>
        </mxCell>
        <mxCell id="am_DWn_WP4FMPw5h6pt2-28" value="" style="endArrow=none;html=1;rounded=0;strokeWidth=5;exitX=0;exitY=0;exitDx=0;exitDy=0;fillColor=#f8cecc;strokeColor=#b85450;entryX=0;entryY=1;entryDx=0;entryDy=0;" edge="1" parent="1" source="am_DWn_WP4FMPw5h6pt2-12" target="am_DWn_WP4FMPw5h6pt2-7">
          <mxGeometry width="50" height="50" relative="1" as="geometry">
            <mxPoint x="630" y="304" as="sourcePoint" />
            <mxPoint x="550" y="160" as="targetPoint" />
          </mxGeometry>
        </mxCell>
        <mxCell id="am_DWn_WP4FMPw5h6pt2-29" value="" style="endArrow=none;html=1;rounded=0;strokeWidth=5;entryX=0;entryY=0;entryDx=0;entryDy=0;fillColor=#d5e8d4;strokeColor=#82b366;" edge="1" parent="1" source="am_DWn_WP4FMPw5h6pt2-11" target="am_DWn_WP4FMPw5h6pt2-14">
          <mxGeometry width="50" height="50" relative="1" as="geometry">
            <mxPoint x="515" y="364" as="sourcePoint" />
            <mxPoint x="515" y="384.71067811865476" as="targetPoint" />
          </mxGeometry>
        </mxCell>
        <mxCell id="am_DWn_WP4FMPw5h6pt2-30" value="" style="endArrow=none;html=1;rounded=0;strokeWidth=5;entryX=1;entryY=0;entryDx=0;entryDy=0;exitX=0;exitY=1;exitDx=0;exitDy=0;fillColor=#d5e8d4;strokeColor=#82b366;" edge="1" parent="1" source="am_DWn_WP4FMPw5h6pt2-12" target="am_DWn_WP4FMPw5h6pt2-13">
          <mxGeometry width="50" height="50" relative="1" as="geometry">
            <mxPoint x="553.5220174921756" y="319.46956880931566" as="sourcePoint" />
            <mxPoint x="643.1801948466054" y="368.85786437626894" as="targetPoint" />
          </mxGeometry>
        </mxCell>
        <mxCell id="am_DWn_WP4FMPw5h6pt2-31" value="" style="endArrow=none;html=1;rounded=0;strokeWidth=5;entryX=0.415;entryY=0.025;entryDx=0;entryDy=0;exitX=0.4;exitY=0.967;exitDx=0;exitDy=0;exitPerimeter=0;entryPerimeter=0;fillColor=#d5e8d4;strokeColor=#82b366;" edge="1" parent="1" source="am_DWn_WP4FMPw5h6pt2-12" target="am_DWn_WP4FMPw5h6pt2-14">
          <mxGeometry width="50" height="50" relative="1" as="geometry">
            <mxPoint x="563.5220174921756" y="329.46956880931566" as="sourcePoint" />
            <mxPoint x="653.1801948466054" y="378.85786437626894" as="targetPoint" />
          </mxGeometry>
        </mxCell>
        <mxCell id="am_DWn_WP4FMPw5h6pt2-32" value="" style="endArrow=none;html=1;rounded=0;strokeWidth=5;entryX=0.5;entryY=0;entryDx=0;entryDy=0;exitX=0.5;exitY=1;exitDx=0;exitDy=0;fillColor=#d5e8d4;strokeColor=#82b366;" edge="1" parent="1" source="am_DWn_WP4FMPw5h6pt2-11" target="am_DWn_WP4FMPw5h6pt2-13">
          <mxGeometry width="50" height="50" relative="1" as="geometry">
            <mxPoint x="573.5220174921756" y="339.46956880931566" as="sourcePoint" />
            <mxPoint x="663.1801948466054" y="388.85786437626894" as="targetPoint" />
          </mxGeometry>
        </mxCell>
        <mxCell id="am_DWn_WP4FMPw5h6pt2-33" value="" style="curved=1;endArrow=classic;html=1;rounded=0;strokeWidth=5;entryX=0;entryY=0.5;entryDx=0;entryDy=0;exitX=0;exitY=1;exitDx=0;exitDy=0;fillColor=#e1d5e7;strokeColor=#9673a6;" edge="1" parent="1" source="am_DWn_WP4FMPw5h6pt2-13" target="am_DWn_WP4FMPw5h6pt2-6">
          <mxGeometry width="50" height="50" relative="1" as="geometry">
            <mxPoint x="400" y="400" as="sourcePoint" />
            <mxPoint x="450" y="350" as="targetPoint" />
            <Array as="points">
              <mxPoint x="450" y="400" />
              <mxPoint x="400" y="190" />
            </Array>
          </mxGeometry>
        </mxCell>
        <mxCell id="am_DWn_WP4FMPw5h6pt2-34" value="" style="curved=1;endArrow=classic;html=1;rounded=0;strokeWidth=5;exitX=0.5;exitY=1;exitDx=0;exitDy=0;fillColor=#e1d5e7;strokeColor=#9673a6;" edge="1" parent="1" source="am_DWn_WP4FMPw5h6pt2-13" target="am_DWn_WP4FMPw5h6pt2-7">
          <mxGeometry width="50" height="50" relative="1" as="geometry">
            <mxPoint x="493.18019484660545" y="397.1421356237306" as="sourcePoint" />
            <mxPoint x="480" y="146" as="targetPoint" />
            <Array as="points">
              <mxPoint x="390" y="410" />
              <mxPoint x="410" y="40" />
            </Array>
          </mxGeometry>
        </mxCell>
        <mxCell id="am_DWn_WP4FMPw5h6pt2-35" value="" style="curved=1;endArrow=classic;html=1;rounded=0;strokeWidth=5;exitX=0.978;exitY=0.192;exitDx=0;exitDy=0;exitPerimeter=0;entryX=0.5;entryY=0;entryDx=0;entryDy=0;fillColor=#e1d5e7;strokeColor=#9673a6;" edge="1" parent="1" source="am_DWn_WP4FMPw5h6pt2-14" target="am_DWn_WP4FMPw5h6pt2-7">
          <mxGeometry width="50" height="50" relative="1" as="geometry">
            <mxPoint x="820" y="420" as="sourcePoint" />
            <mxPoint x="870" y="370" as="targetPoint" />
            <Array as="points">
              <mxPoint x="810" y="330" />
              <mxPoint x="880" y="70" />
            </Array>
          </mxGeometry>
        </mxCell>
        <mxCell id="am_DWn_WP4FMPw5h6pt2-36" value="" style="curved=1;endArrow=classic;html=1;rounded=0;strokeWidth=5;entryX=0.5;entryY=0;entryDx=0;entryDy=0;fillColor=#e1d5e7;strokeColor=#9673a6;" edge="1" parent="1" source="am_DWn_WP4FMPw5h6pt2-14" target="am_DWn_WP4FMPw5h6pt2-6">
          <mxGeometry width="50" height="50" relative="1" as="geometry">
            <mxPoint x="718.02" y="370.68000000000006" as="sourcePoint" />
            <mxPoint x="675" y="126" as="targetPoint" />
            <Array as="points">
              <mxPoint x="820" y="400" />
              <mxPoint x="920" y="20" />
            </Array>
          </mxGeometry>
        </mxCell>
        <mxCell id="am_DWn_WP4FMPw5h6pt2-10" value="Write region" style="ellipse;whiteSpace=wrap;html=1;" vertex="1" parent="1">
          <mxGeometry x="620" y="196" width="90" height="40" as="geometry" />
        </mxCell>
      </root>
    </mxGraphModel>
  </diagram>
</mxfile>
